<?xml version="1.0" encoding="utf-8"?>
<!-- Generator: Adobe Illustrator 25.0.0, SVG Export Plug-In . SVG Version: 6.00 Build 0)  -->
<svg version="1.1" id="Calque_1" xmlns="http://www.w3.org/2000/svg" xmlns:xlink="http://www.w3.org/1999/xlink" x="0px" y="0px"
	 viewBox="0 0 394 319.7" style="enable-background:new 0 0 394 319.7;" xml:space="preserve">
<style type="text/css">
	.st0{fill:#FFFFFF;}
	.st1{opacity:0.7;fill:#FFFFFF;enable-background:new    ;}
	.st2{fill:#5266FF;}
	.st3{opacity:0.5;fill:#FFFFFF;enable-background:new    ;}
	.st4{fill:#FFFFFF;stroke:#263238;stroke-linecap:round;stroke-linejoin:round;}
	.st5{clip-path:url(#SVGID_2_);}
	.st6{opacity:0.5;fill:#FFFFFF;stroke:#263238;stroke-miterlimit:10;enable-background:new    ;}
	.st7{fill:none;stroke:#263238;stroke-linecap:round;stroke-linejoin:round;}
	.st8{fill:#5266FF;stroke:#263238;stroke-linecap:round;stroke-linejoin:round;}
	.st9{fill:#263238;stroke:#263238;stroke-linecap:round;stroke-linejoin:round;}
	.st10{clip-path:url(#SVGID_4_);}
	.st11{opacity:0.2;enable-background:new    ;}
	.st12{fill:none;stroke:#263238;stroke-width:0.5;stroke-linecap:round;stroke-linejoin:round;}
	.st13{fill:#FEB75D;stroke:#263238;stroke-linecap:round;stroke-linejoin:round;}
	.st14{fill:#263238;}
	.st15{opacity:0.6;fill:#FFFFFF;enable-background:new    ;}
	.st16{fill:none;stroke:#263238;stroke-miterlimit:10;}
	.st17{opacity:0.5;}
	.st18{fill:#FFFFFF;stroke:#263238;stroke-miterlimit:10;}
	.st19{fill:none;stroke:#FFFFFF;stroke-width:0.5;stroke-linecap:round;stroke-linejoin:round;}
	.st20{fill:none;stroke:#FFFFFF;stroke-miterlimit:10;}
	.st21{clip-path:url(#SVGID_6_);}
	.st22{opacity:0.5;fill:#5266FF;enable-background:new    ;}
	.st23{clip-path:url(#SVGID_8_);}
	.st24{clip-path:url(#SVGID_10_);}
	.st25{clip-path:url(#SVGID_12_);}
</style>
<g id="freepik--background-simple--inject-1--inject-38">
	<path class="st0" d="M349.9,270.2c0,0,44.1-38.7,44.1-89.8s-28.6-51.1-53.4-116.9s-95.2-74.3-137.8-53.4
		c-36.1,17.7-46.4,71.2-77.4,81.3s-34-14.7-83.6-1.6s-24,85.1-24,85.1l96-29.4L349.9,270.2z"/>
	<path class="st1" d="M349.9,270.2c0,0,44.1-38.7,44.1-89.8s-28.6-51.1-53.4-116.9s-95.2-74.3-137.8-53.4
		c-36.1,17.7-46.4,71.2-77.4,81.3s-34-14.7-83.6-1.6s-24,85.1-24,85.1l96-29.4L349.9,270.2z"/>
</g>
<g id="freepik--Shadows--inject-1--inject-38">
	<polyline class="st2" points="178.8,270 112.2,296.7 34.8,219.3 85.5,212 178.8,270 	"/>
	<polyline class="st3" points="178.8,270 112.2,296.7 34.8,219.3 85.5,212 178.8,270 	"/>
	<ellipse class="st2" cx="260.8" cy="294.7" rx="16" ry="10.7"/>
	<ellipse class="st3" cx="260.8" cy="294.7" rx="16" ry="10.7"/>
	<polyline class="st2" points="198.2,234.1 295.9,241.8 274.2,230.7 198.2,234.1 	"/>
	<polyline class="st3" points="198.2,234.1 295.9,241.8 274.2,230.7 198.2,234.1 	"/>
	<polyline class="st2" points="220.2,204 191.2,201.6 194.8,197.3 211.5,197.3 220.2,204 	"/>
	<polyline class="st3" points="220.2,204 191.2,201.6 194.8,197.3 211.5,197.3 220.2,204 	"/>
	<ellipse class="st2" cx="314.1" cy="307.3" rx="20.3" ry="12.3"/>
	<ellipse class="st3" cx="314.1" cy="307.3" rx="20.3" ry="12.3"/>
</g>
<g id="freepik--Post-it--inject-1--inject-38">
	<polygon class="st4" points="193.7,278.7 182.7,296.7 207,301.4 216.4,283.4 	"/>
	<polygon class="st2" points="212.5,258.4 201.5,274.8 224.2,281.8 233.6,265.4 	"/>
	<g>
		<defs>
			<polygon id="SVGID_1_" points="212.5,258.4 201.5,274.8 224.2,281.8 233.6,265.4 			"/>
		</defs>
		<clipPath id="SVGID_2_">
			<use xlink:href="#SVGID_1_"  style="overflow:visible;"/>
		</clipPath>
		<g class="st5">
			<polygon class="st6" points="212.5,258.4 201.5,274.8 224.2,281.8 233.6,265.4 			"/>
		</g>
	</g>
	<polygon class="st7" points="212.5,258.4 201.5,274.8 224.2,281.8 233.6,265.4 	"/>
	<polygon class="st8" points="236.7,289.7 217.1,295.1 225,307.7 247.6,302.2 	"/>
</g>
<g id="freepik--Plant--inject-1--inject-38">
	<path class="st8" d="M292.5,286.5l2,15.2c0,6.3,7.6,11.4,17.1,11.4s17.1-5.1,17.1-11.4l2.1-15.2H292.5z"/>
	<ellipse class="st8" cx="311.6" cy="286.5" rx="19.1" ry="12.8"/>
	<ellipse class="st8" cx="311.6" cy="286.5" rx="16.3" ry="10.9"/>
	<ellipse class="st9" cx="311.6" cy="288.4" rx="16" ry="8.9"/>
	<path class="st2" d="M317.4,257.3c-2.8-1.8-7-1.6-8.7,1.7c-2.5,4.8-0.7,13.8-1.6,15s-3.6,1.6-4.8-1.1s-1.3-6.3-2.9-6.4
		s-3.8,0.5-4.1,4.6s0.4,8.8,3.2,10.9s6.1,1.4,7,2.3s0,2.3,0,3.2c0,4,5.2,6,8.5,5c4.8-1.4,4.3-6.3,5-8.2s4.6-2.1,6.1-5.2
		s3.6-9.1,0.5-11.4s-5.4-1.3-5.7,1.3c-0.4,2-1.1,3.9-2,5.7C320.1,270.5,322.2,260.4,317.4,257.3z"/>
	<g>
		<defs>
			<path id="SVGID_3_" d="M317.4,257.3c-2.8-1.8-7-1.6-8.7,1.7c-2.5,4.8-0.7,13.8-1.6,15s-3.6,1.6-4.8-1.1s-1.3-6.3-2.9-6.4
				s-3.8,0.5-4.1,4.6s0.4,8.8,3.2,10.9s6.1,1.4,7,2.3s0,2.3,0,3.2c0,4,5.2,6,8.5,5c4.8-1.4,4.3-6.3,5-8.2s4.6-2.1,6.1-5.2
				s3.6-9.1,0.5-11.4s-5.4-1.3-5.7,1.3c-0.4,2-1.1,3.9-2,5.7C320.1,270.5,322.2,260.4,317.4,257.3z"/>
		</defs>
		<clipPath id="SVGID_4_">
			<use xlink:href="#SVGID_3_"  style="overflow:visible;"/>
		</clipPath>
		<g class="st10">
			<path class="st11" d="M317.4,257.3c-2.8-1.8-7-1.6-8.7,1.7c-2.5,4.8-0.7,13.8-1.6,15s-3.6,1.6-4.8-1.1s-1.3-6.3-2.9-6.4
				s-3.8,0.5-4.1,4.6s0.4,8.8,3.2,10.9s6.1,1.4,7,2.3s0,2.3,0,3.2c0,4,5.2,6,8.5,5c4.8-1.4,4.3-6.3,5-8.2s4.6-2.1,6.1-5.2
				s3.6-9.1,0.5-11.4s-5.4-1.3-5.7,1.3c-0.4,2-1.1,3.9-2,5.7C320.1,270.5,322.2,260.4,317.4,257.3z"/>
		</g>
	</g>
	<path class="st7" d="M317.4,257.3c-2.8-1.8-7-1.6-8.7,1.7c-2.5,4.8-0.7,13.8-1.6,15s-3.6,1.6-4.8-1.1s-1.3-6.3-2.9-6.4
		s-3.8,0.5-4.1,4.6s0.4,8.8,3.2,10.9s6.1,1.4,7,2.3s0,2.3,0,3.2c0,4,5.2,6,8.5,5c4.8-1.4,4.3-6.3,5-8.2s4.6-2.1,6.1-5.2
		s3.6-9.1,0.5-11.4s-5.4-1.3-5.7,1.3c-0.4,2-1.1,3.9-2,5.7C320.1,270.5,322.2,260.4,317.4,257.3z"/>
	<path class="st12" d="M313,258.6c-1.6,1.1-2.7,2.9-2.9,4.8c-0.2,3.2,0,13.4-1.3,14.8s-5.4,1.1-8-1.4s-1.5-7.9-1.5-7.9"/>
	<path class="st12" d="M300.2,280c0.9,0.7,2,1.2,3.1,1.5c3.2,0.7,5.5-0.9,6.1,0.7s-0.5,7.3-0.5,7.3"/>
	<path class="st12" d="M298.3,278.1c0.3,0.5,0.7,0.9,1.1,1.3"/>
	<path class="st12" d="M312.9,286.6c0.2-2.7,0.2-5.3,0.1-8c-0.3-4,1.5-11.4,2-14.8"/>
	<path class="st12" d="M312.6,290.8c0,0,0.1-1.1,0.2-2.7"/>
	<path class="st12" d="M325,272.9c0.1-0.9,0.1-1.4,0.1-1.4"/>
	<path class="st12" d="M316.5,287.6c0,0,0.7-5.9,2.1-7s5.5-1.8,5.9-4.5c0.1-0.4,0.1-0.8,0.2-1.2"/>
	<path class="st12" d="M322.6,269.2c-0.8,0.5-1.2,1.4-1.1,2.3c0.1,2.2-1,4.3-2.9,5.4"/>
	<path class="st12" d="M315.2,261.8c0.1-1,0-2-0.1-3"/>
</g>
<g id="freepik--Cup--inject-1--inject-38">
	<path class="st4" d="M247.1,257.9l2.6,27.9v3c0,4,5.6,7.2,12.6,7.2s12.6-3.2,12.6-7.2v-3l2.4-28.2L247.1,257.9z"/>
	<path class="st13" d="M275,284.3l1.4-16.3c-1.9,2.9-7.5,5-14,5c-7,0-12.8-2.3-14.3-5.5l1.6,16.6c2.6,2.1,7.3,3.6,12.7,3.6
		S272.4,286.4,275,284.3z"/>
	<polygon class="st4" points="247.6,263.1 247.6,262.9 247.5,261.8 	"/>
	<path class="st8" d="M277.7,253.7c-2.7-3.4-8.6-5.7-15.5-5.7s-12.8,2.4-15.5,5.7h-1.5v4c0,5.4,7.6,9.7,17,9.7s17-4.3,17-9.7v-4
		H277.7z"/>
	<path class="st11" d="M277.7,253.7c-2.7-3.4-8.6-5.7-15.5-5.7s-12.8,2.4-15.5,5.7h-1.5v4c0,5.4,7.6,9.7,17,9.7s17-4.3,17-9.7v-4
		H277.7z"/>
	<ellipse class="st4" cx="262.3" cy="253.7" rx="17" ry="9.7"/>
	<path class="st8" d="M275.8,248.3c-2.3-2.9-7.5-5-13.5-5s-11.2,2-13.5,5h-1.3v3.5c0,4.7,6.6,8.5,14.8,8.5s14.8-3.8,14.8-8.5v-3.5
		H275.8z"/>
	<ellipse class="st4" cx="262.3" cy="248.3" rx="14.8" ry="8.5"/>
</g>
<g id="freepik--Cat--inject-1--inject-38">
	<path class="st4" d="M112.7,166.1c0,0,1.2-0.8,8.5,2.3s10.3,2.4,17.4,1.2c8.6-1.5,15.7-3,16.6,0.5c1.5,6-4.5,5.9-15.4,7.1
		s-17.1-2.1-20.6-3.7c-1.6-0.7-3.2-1.4-4.6-2.3L112.7,166.1z"/>
	<path class="st4" d="M96.1,169.2c0,0,9.7,11.2,13.9,8.1s3.9-13.1,0-16.3S95.3,163.7,96.1,169.2z"/>
	<path class="st4" d="M125.5,138.2c0,0,0.4,10.4-2.3,17.4s-7.7,11.6-8.5,15.5s-0.4,9.3-4.3,10.8s-3.9-1.2-3.5-4.3s1.2-14.7,1.2-14.7
		l-12.8,7.7c0,0,3.5,9.7-3.9,10.8S75.2,171.5,74,163s3.5-27.5,11.6-32.5s18.6-4.3,24-4.3S123.2,130.1,125.5,138.2z"/>
	<path class="st14" d="M94.6,127.5c0,0-2,1-5.5,6.5s3.5,10.2,7.2,7.7s0.5-7.7,3.2-10.2c1.6-1.3,2.6-3.2,3-5.2L94.6,127.5z"/>
	<path class="st14" d="M83.4,135.2c-1.8,1.3-3,3.3-3.3,5.5c-0.3,3.5,6-3,6.7-6S83.4,135.2,83.4,135.2z"/>
	<path class="st13" d="M105.8,127.4c-1.8,3.3-1.7,7.3,0.4,10.4c3.5,5.4,11.2,7.7,14.3,3.9s4.3-5.8,3.1-7.7S111.2,124.3,105.8,127.4z
		"/>
	<path class="st4" d="M134.4,108.4c-3,0.3-5.9-0.7-8.1-2.7c-3.9-3.5-7.4-11.2-8.9-10.8s-7,11.6-7,11.6s-9.3,0.8-10.1,3.5
		s3.5,15.5,7,20.9c3.3,4.9,8.8,7.9,14.7,8.2c4.6,0,18.6,1.2,20.5-3.5s0.4-18.6,0.4-18.6s6.2-6.2,3.5-7.4S134.4,108.4,134.4,108.4z"
		/>
	<path class="st14" d="M132.5,127.8c-0.5-0.6-0.9-1.2-1.4-1.9c-0.7-1.1-2.5-2.7-5.8-1.7c-4.7,1.5-8,6-2.7,9.7
		C127.6,137.5,137.5,134.3,132.5,127.8z"/>
	<path class="st4" d="M110.4,106.5c0,0,5.4,3.1,8.5,1.9s1.2-14.3-1.5-13.6S110,101.4,110.4,106.5z"/>
	<path class="st4" d="M146.4,109.6c0,0-5-0.4-8.1,3.1s-1.2,7,3.1,7.7S147.9,109.6,146.4,109.6z"/>
	<path class="st8" d="M116.2,131.2c0,0-5-3.9-3.9-0.8s3.1,3.5,5,2.7S116.2,131.2,116.2,131.2z"/>
	<path class="st14" d="M113.4,121.5c-0.3,1-1.1,1.7-1.8,1.5s-1.1-1.2-0.8-2.2s1.1-1.7,1.8-1.5S113.7,120.5,113.4,121.5z"/>
	<path class="st0" d="M125.4,130.7c-0.9,0.5-2,0.5-2.4-0.2s0.1-1.6,1-2.1c0.7-0.6,1.7-0.5,2.4,0.2
		C126.7,129.2,126.3,130.1,125.4,130.7z"/>
	<path class="st4" d="M90.7,155.2c0,0-1.2,8.5,0.4,12s3.1,16.6,6.2,17s1.9-7,1.9-8.1s0.4-13.5,0.4-13.5s2.7-5.8,4.3-8.9"/>
	<path class="st7" d="M77.9,154.8c0,0,10.4-3.1,11.6,8.5"/>
	<path class="st7" d="M108.1,163c0,0,8.9-4.6,9.3-14.7"/>
</g>
<g id="freepik--Character--inject-1--inject-38">
	<line class="st7" x1="0.5" y1="178.8" x2="7.1" y2="177.3"/>
	<path class="st8" d="M55.5,217.7l53.1-15.1c1.7-0.2,3.4,0.2,4.8,1.2l86.5,55.3c1,0.6,1.3,2,0.6,3c-0.3,0.5-0.9,0.9-1.5,1
		l-72.7,22.6L55.5,217.7z"/>
	<polygon class="st14" points="86.6,220.9 94.1,226.1 102.8,223.6 95.3,218.5 	"/>
	<polygon class="st14" points="91.3,235.4 83.7,230.2 75,232.7 82.6,237.9 	"/>
	<polygon class="st14" points="105.5,224.1 113,229.3 121.7,226.8 114.2,221.6 	"/>
	<polygon class="st14" points="114.3,230.1 121.8,235.3 130.5,232.8 123,227.7 	"/>
	<polygon class="st14" points="95.3,226.9 102.9,232.1 111.6,229.7 104,224.5 	"/>
	<polygon class="st14" points="76.4,223.8 83.9,229 92.6,226.5 85.1,221.3 	"/>
	<polygon class="st14" points="136.5,256.7 128.9,251.5 120.3,254 127.8,259.2 	"/>
	<polygon class="st14" points="126.3,259.6 118.8,254.4 110.1,256.8 117.6,262 	"/>
	<polygon class="st14" points="100,241.5 92.5,236.3 83.8,238.7 91.3,243.9 	"/>
	<polygon class="st14" points="145.2,262.7 137.7,257.6 129,260 136.5,265.2 	"/>
	<polygon class="st14" points="108.8,247.5 101.3,242.3 92.6,244.8 100.1,249.9 	"/>
	<polygon class="st14" points="117.6,253.5 110,248.3 101.3,250.8 108.9,256 	"/>
	<polygon class="st14" points="123,236.2 130.5,241.3 139.2,238.9 131.7,233.7 	"/>
	<polygon class="st14" points="85.2,229.8 92.7,235 101.4,232.5 93.9,227.4 	"/>
	<polygon class="st14" points="155.4,259.9 147.9,254.7 139.2,257.2 146.7,262.3 	"/>
	<polygon class="st14" points="129.1,241.8 121.6,236.6 112.9,239 120.4,244.2 	"/>
	<polygon class="st14" points="110.2,238.6 102.6,233.4 93.9,235.9 101.5,241 	"/>
	<polygon class="st14" points="73.7,223.3 69.3,220.3 63.4,222 66.9,225.3 	"/>
	<polygon class="st14" points="82.5,229.4 75,224.2 67.8,226.2 73.7,231.8 73.8,231.8 	"/>
	<polygon class="st14" points="104.1,233 111.6,238.2 120.3,235.7 112.8,230.5 	"/>
	<polygon class="st14" points="118.9,244.6 111.4,239.4 102.7,241.9 110.2,247.1 	"/>
	<polygon class="st14" points="156.8,251 149.3,245.8 140.6,248.2 148.1,253.4 	"/>
	<polygon class="st14" points="131.8,242.2 139.3,247.4 148,244.9 140.5,239.7 	"/>
	<polygon class="st14" points="146.6,253.8 139.1,248.7 130.4,251.1 137.9,256.3 	"/>
	<polygon class="st14" points="137.9,247.8 130.3,242.6 121.6,245.1 129.2,250.3 	"/>
	<polygon class="st14" points="127.7,250.7 120.2,245.5 111.5,247.9 119,253.1 	"/>
	<polygon class="st14" points="89.9,244.3 82.4,239.1 81.7,239.3 87.6,245 	"/>
	<polygon class="st14" points="156.6,260.7 147.9,263.2 156.9,269.4 165.4,266.8 	"/>
	<polygon class="st14" points="146.5,263.6 137.8,266.1 147.1,272.5 155.5,269.8 	"/>
	<polygon class="st14" points="107.4,256.4 99.9,251.2 95.5,252.4 101.4,258.1 	"/>
	<polygon class="st14" points="165.5,257 158,251.8 149.3,254.3 156.8,259.5 	"/>
	<polygon class="st14" points="116.2,262.4 108.6,257.3 102.4,259 108.4,264.6 	"/>
	<polygon class="st14" points="124.9,268.5 117.4,263.3 109.3,265.6 115.3,271.2 	"/>
	<polygon class="st14" points="135.1,265.6 127.6,260.4 118.9,262.9 126.4,268.1 	"/>
	<path class="st14" d="M184.2,257.5l-5-3.1l-11,3.1l8.5,5.9l6.6-2c1.1-0.1,2-1.1,1.9-2.2C185.2,258.4,184.8,257.8,184.2,257.5z"/>
	<polygon class="st14" points="126.2,269.3 116.3,272.1 124.1,279.5 135.8,275.9 	"/>
	<polygon class="st14" points="169.9,248.5 159.5,251.4 167,256.6 177.9,253.5 	"/>
	<polygon class="st14" points="166.8,257.9 158.1,260.3 166.8,266.4 175.3,263.8 	"/>
	<polygon class="st14" points="105.6,214.3 112.8,212.3 108.2,209.4 101.3,211.3 	"/>
	<polygon class="st14" points="145.6,272.9 136.3,266.5 127.6,268.9 137.2,275.5 	"/>
	<polygon class="st14" points="106.9,215.2 114.4,220.4 122.1,218.2 114.1,213.1 	"/>
	<polygon class="st14" points="124.4,227.3 131.9,232.4 140.7,230 132.7,224.9 	"/>
	<polygon class="st14" points="115.6,221.2 123.2,226.4 131.4,224.1 123.4,219 	"/>
	<polygon class="st14" points="133.2,233.3 140.7,238.5 150,235.9 142,230.8 	"/>
	<polygon class="st14" points="141.9,239.3 149.5,244.5 159.3,241.7 151.3,236.7 	"/>
	<polygon class="st14" points="160.6,242.6 150.7,245.4 158.2,250.6 168.6,247.6 	"/>
	<polygon class="st14" points="96.7,218 104.3,223.2 112.9,220.8 105.4,215.6 	"/>
	<polygon class="st14" points="79.2,236.9 80.7,238.4 81.1,238.3 	"/>
	<polygon class="st14" points="75.2,222.9 83.9,220.5 79.5,217.4 70.8,219.9 	"/>
	<polygon class="st14" points="85.3,220.1 94,217.6 89.7,214.6 80.9,217 	"/>
	<polygon class="st14" points="91.1,214.2 95.5,217.2 104.2,214.7 99.8,211.7 	"/>
	<polygon class="st14" points="98.6,250.4 91.1,245.2 88.6,245.9 94.5,251.5 	"/>
	<path class="st8" d="M126.3,285.6l-23-93.1c-0.5-2.1-1.7-4-3.3-5.5l-62-57.8c-0.7-0.6-1.7-0.6-2.4,0.1c-0.4,0.4-0.5,1-0.4,1.5
		l20.3,86.9L126.3,285.6z"/>
	<path class="st12" d="M91.5,183.2l7.1,6.2c0,0,2.2,0.4,4.4,11.5"/>
	<line class="st12" x1="104.3" y1="206.7" x2="117.4" y2="263.3"/>
	<path class="st2" d="M66.1,180.7c3.1,7.5,2.8,14.6-0.6,16.1s-8.7-3.5-11.8-11s-2.8-14.6,0.6-16S63,173.2,66.1,180.7z"/>
	<path class="st15" d="M66.1,180.7c3.1,7.5,2.8,14.6-0.6,16.1s-8.7-3.5-11.8-11s-2.8-14.6,0.6-16S63,173.2,66.1,180.7z"/>
	
		<ellipse transform="matrix(0.9247 -0.3807 0.3807 0.9247 -65.2472 36.5964)" class="st16" cx="59.9" cy="183.2" rx="4.8" ry="10.4"/>
	<path class="st14" d="M70.8,211.3c1.6,3.9,0.9,7.8-1.5,8.8s-5.6-1.4-7.2-5.2s-0.9-7.8,1.5-8.8S69.2,207.4,70.8,211.3z"/>
	<path class="st2" d="M67.5,217.8c-1.5,0-3.2-1.4-4-3.5c-0.5-1.1-0.6-2.3-0.5-3.5c0.1-1,0.7-1.9,1.6-2.3c1.7-0.7,3.8,0.8,4.9,3.3
		l0,0c1.1,2.6,0.6,5.1-1.1,5.8C68.1,217.7,67.8,217.8,67.5,217.8z M65.5,209.3c-0.2,0-0.3,0-0.5,0.1c-0.6,0.3-1,0.9-1,1.6
		c-0.1,1,0,2.1,0.4,3c0.8,2,2.5,3.3,3.6,2.8s1.4-2.5,0.6-4.5C67.9,210.5,66.5,209.3,65.5,209.3L65.5,209.3z"/>
	<g class="st17">
		<path class="st0" d="M67.5,217.8c-1.5,0-3.2-1.4-4-3.5c-0.5-1.1-0.6-2.3-0.5-3.5c0.1-1,0.7-1.9,1.6-2.3c1.7-0.7,3.8,0.8,4.9,3.3
			l0,0c1.1,2.6,0.6,5.1-1.1,5.8C68.1,217.7,67.8,217.8,67.5,217.8z M65.5,209.3c-0.2,0-0.3,0-0.5,0.1c-0.6,0.3-1,0.9-1,1.6
			c-0.1,1,0,2.1,0.4,3c0.8,2,2.5,3.3,3.6,2.8s1.4-2.5,0.6-4.5C67.9,210.5,66.5,209.3,65.5,209.3L65.5,209.3z"/>
	</g>
	<path class="st14" d="M88.6,212.5l-5.7,9c-0.3,0.4-0.3,1,0,1.5l12.2,17.8c0.4,0.6,1.3,0.8,1.9,0.4c0,0,0.1-0.1,0.1-0.1l6.3-5.1
		c0.5-0.4,0.7-1.2,0.3-1.7l-12.8-21.6c-0.4-0.6-1.2-0.9-1.8-0.5C88.9,212.1,88.8,212.3,88.6,212.5z"/>
	<path class="st2" d="M78.7,224.4c0,0,15.8-2.6,26.6,19.6l2.7-3.3c0,0-10.4-17.4-18.9-18.9s-11.6-1.6-11.6-1.6L78.7,224.4z"/>
	<path class="st3" d="M78.7,224.4c0,0,15.8-2.6,26.6,19.6l2.7-3.3c0,0-10.4-17.4-18.9-18.9s-11.6-1.6-11.6-1.6L78.7,224.4z"/>
	<line class="st7" x1="10.8" y1="176.5" x2="36.5" y2="170.7"/>
	<path class="st18" d="M174.1,232.5c-3.1,0.5-6.2,0.8-9.3,0.9c-4.8,0.2-6.9,0.2-6.1,1.3s6.5,2.2,8.6,2.6S174.1,232.5,174.1,232.5z"
		/>
	<line class="st7" x1="355.4" y1="273" x2="346.8" y2="268.5"/>
	<path class="st14" d="M183.4,167.9c0,0,1.8-3.2,2.6,0.8L183.4,167.9z"/>
	<line class="st7" x1="341.5" y1="265.7" x2="131.6" y2="156"/>
	<polygon class="st9" points="137.1,199 181.2,227.4 217.5,212.6 168.6,187.8 	"/>
	<line class="st19" x1="165.4" y1="193" x2="147.9" y2="199.2"/>
	<polyline class="st19" points="150.6,201.3 182.3,221.3 208.2,211.3 	"/>
	<path class="st9" d="M318.8,64.6c0,0,25.3,4,33.4,17.5s2.3,34.8-0.4,42.2c-2.5,6.7,4.8,12.2,9.2,15.9c10,8.1,15.1,19.6,10,32
		c-3.2,7.8-17.6,11.2-15.7,20.6s10.4,22.4-0.4,32.1c-11.4,10.2-28.6,4.9-38.6-4.6c-11.3-10.7-15.1-29.4-9.4-43.8
		c7-17.4,10.8-28.6,4.3-36s-15.1-12-15.1-22.4s9.3-13.5,13.2-24s-1.5-21.3-1.5-21.3L318.8,64.6z"/>
	<path class="st20" d="M342.5,82.6c4.9,3.7,9.3,9.9,7.8,20c-3.1,20.5-18.3,21.8-8.5,34.8s18.7,7.1,16.9,23.2s-7.6,21.8-7.6,21.8"/>
	<path class="st20" d="M332,77.7c2,0.5,3.9,1.1,5.7,2"/>
	<path class="st20" d="M327.1,83.5c0,0,12.9,3.6,16.9,14.3s-12,19.6-12.9,26.3"/>
	<path class="st8" d="M326.6,257.9c-0.2-6.1-0.3-14.3,0.1-22.9c0.8-17.8,22.1-41.4,22.8-45.7s-1.2-5-1.2-5l-42.2-18.2
		c-19.6,12.9-24.4,50.3-25.5,67.8L326.6,257.9z"/>
	<path class="st12" d="M343.8,185.4c0,0,3.5,2.2,0,5.8s-13.3,18.6-17.3,27.4"/>
	<path class="st12" d="M324.8,223c0,0-3.1,7.1-2.6,14.2s0.4,13.7,0.4,13.7"/>
	<path class="st0" d="M242,175.8c1.9,4.8,4.1,15.3,2.6,21.2c-0.8,3.1-3.4,9.6-5.6,15.1l56.9,29.7c-0.1-11.8,0.1-30.5,1.6-34
		c2.2-5.2,20.1-54.3,19-65.5s-22.7-27.2-22.7-27.2l3.3-27.2l-19.7,11.9c0,0-2.2,10.8-4.5,13.4s-20.5,6.3-25.7,13s-3.4,27.2-3.4,28.3
		C243.9,155.7,240.1,171,242,175.8z"/>
	<g>
		<defs>
			<path id="SVGID_5_" d="M242,175.8c1.9,4.8,4.1,15.3,2.6,21.2c-0.8,3.1-3.4,9.6-5.6,15.1l56.9,29.7c-0.1-11.8,0.1-30.5,1.6-34
				c2.2-5.2,20.1-54.3,19-65.5s-22.7-27.2-22.7-27.2l3.3-27.2l-19.7,11.9c0,0-2.2,10.8-4.5,13.4s-20.5,6.3-25.7,13
				s-3.4,27.2-3.4,28.3C243.9,155.7,240.1,171,242,175.8z"/>
		</defs>
		<clipPath id="SVGID_6_">
			<use xlink:href="#SVGID_5_"  style="overflow:visible;"/>
		</clipPath>
		<g class="st21">
			<path class="st22" d="M316.4,142.3c-1.1-11.2-22.7-27.2-22.7-27.2l3.3-27.2l-19.7,11.9c0,0-0.6,3.1-1.6,6.4
				c1.3-0.1,2.7-0.3,4.3-0.6c7.5-1.3,11.5-4,11.5-4l-4,16.8c0,0,20.4,12,25.7,26.6c0.7,2,1.5,3.9,2.3,5.7
				C316.2,148.1,316.5,145.2,316.4,142.3z"/>
		</g>
	</g>
	<path class="st7" d="M242,175.8c1.9,4.8,4.1,15.3,2.6,21.2c-0.8,3.1-3.4,9.6-5.6,15.1l56.9,29.7c-0.1-11.8,0.1-30.5,1.6-34
		c2.2-5.2,20.1-54.3,19-65.5s-22.7-27.2-22.7-27.2l3.3-27.2l-19.7,11.9c0,0-2.2,10.8-4.5,13.4s-20.5,6.3-25.7,13s-3.4,27.2-3.4,28.3
		C243.9,155.7,240.1,171,242,175.8z"/>
	<path class="st9" d="M242,175.8c1.9,4.8,4.1,15.3,2.6,21.2c-0.8,3.1-3.4,9.6-5.6,15.1l56.9,29.7c-0.1-11.8,0.1-30.5,1.6-34
		c2.2-5.2,20.1-54.3,19-65.5c-0.7-6.9-9.3-15.8-15.7-21.4c-6.3,6.7-20,19.2-30,13.6c-9-5-8.4-12.6-7.1-17.1
		c-6.1,2.2-13.4,5.1-16.3,8.9c-5.2,6.7-3.4,27.2-3.4,28.3C243.9,155.7,240.1,171,242,175.8z"/>
	<path class="st4" d="M275.2,162.6l-12.4-5.8c0,0-3.5-5.8-5.4-5.8s-3.1,8.1-3.1,8.1s-6.6,6.2-4.3,12.4s10.8,15.5,21.3,12
		s7.4-14.3,7.4-14.3s4.3-7.4,4.3-8.9S275.2,162.6,275.2,162.6z"/>
	<path class="st0" d="M248.7,42.6c0,0,2.6,13.4,2.2,22.7s-4.1,13-3,17.1s14.5,19.4,22.7,20.8s27.5-11.2,33.1-16.7s6.3-13.8,5.6-17.1
		s-3.7-30.1-14.9-40.9S253.9,18.8,248.7,42.6z"/>
	<g>
		<defs>
			<path id="SVGID_7_" d="M248.7,42.6c0,0,2.6,13.4,2.2,22.7s-4.1,13-3,17.1s14.5,19.4,22.7,20.8s27.5-11.2,33.1-16.7
				s6.3-13.8,5.6-17.1s-3.7-30.1-14.9-40.9S253.9,18.8,248.7,42.6z"/>
		</defs>
		<clipPath id="SVGID_8_">
			<use xlink:href="#SVGID_7_"  style="overflow:visible;"/>
		</clipPath>
		<g class="st23">
			<path class="st22" d="M294.5,28.5c-4.2-4-10.9-6.4-17.9-6.6l-0.5,13.9c0,0-2.2,13.7,5.8,24.8s15,14.2,15.9,18.6
				s-3.1,8.8-13.3,16.4c-4,3-8.2,5.6-12.7,7.8c8.7,0.3,26.7-11.5,32-16.9c5.6-5.6,6.3-13.8,5.6-17.1S305.6,39.3,294.5,28.5z"/>
		</g>
	</g>
	<path class="st7" d="M248.7,42.6c0,0,2.6,13.4,2.2,22.7s-4.1,13-3,17.1s14.5,19.4,22.7,20.8s27.5-11.2,33.1-16.7s6.3-13.8,5.6-17.1
		s-3.7-30.1-14.9-40.9S253.9,18.8,248.7,42.6z"/>
	<path class="st7" d="M262.9,70.1c0,0-1.1,7.1-3,9.3c1.5,1.3,3.3,2.1,5.2,2.2"/>
	<path class="st7" d="M263.6,88c4.9,2.2,10.6,1.9,15.3-0.7"/>
	<path class="st14" d="M277,66.4c0,1.2-0.6,2.2-1.3,2.2s-1.3-1-1.3-2.2s0.6-2.2,1.3-2.2S277,65.2,277,66.4z"/>
	<path class="st14" d="M258.6,63.5c0,1.2-0.6,2.2-1.3,2.2s-1.3-1-1.3-2.2c0-1.2,0.6-2.2,1.3-2.2S258.6,62.2,258.6,63.5z"/>
	<path class="st7" d="M253.5,53.8c2.1-1.3,4.7-1.7,7.1-1.1"/>
	<path class="st7" d="M271,54.2c0,0,2.2-1.1,7.1,1.9"/>
	<path class="st9" d="M273.3,32.6c0,0-10.4,8.6-15.6,13.8s-7.4,8.9-15.3,5.6s-13.4-14.9-3-28.7S269.9,5.4,289.6,11
		s27.9,18.2,29.4,32s-1.5,29-8.5,33.1S287.8,63.5,282.2,53C278.7,46.4,275.7,39.6,273.3,32.6z"/>
	<path class="st20" d="M273.3,32.6c0,0-28.1,4.1-29.4,10.4s7.1,4.5,7.1,4.5"/>
	<path class="st20" d="M240.2,36.7c-1.9,4.1-0.4,6.7-0.4,6.7"/>
	<path class="st20" d="M301.3,19.3c0,0-27.2-4.4-27.2,7.6c0,0-16.5-5.8-27.2,2.2c-1.6,1.2-3.1,2.5-4.4,4"/>
	<path class="st20" d="M275.5,29.6c0,0,6.9,22.4,21.4,28.1"/>
	<path class="st20" d="M289.9,35.6c5.6,4.6,13.5,9.1,23,8.7"/>
	<path class="st20" d="M281.3,26.5c1.3,1.8,2.7,3.5,4.3,5.1"/>
	<path class="st7" d="M246.1,55.6l43.5,7.4c0,0,0,6.6-1.9,10s-4.1,3.4-8.9,3.4s-11.6-3-11.9-4.1c-0.8-2.6-0.3-11.4-0.3-11.4
		l-3.5-0.6c0,0,0.5,10.1-1.4,11.3s-14.1-1.1-16.4-4.1S244.6,55.3,246.1,55.6z"/>
	<polygon class="st13" points="289.6,63.1 309,59.7 309,62.3 289.6,67.2 	"/>
	
		<ellipse transform="matrix(0.1587 -0.9873 0.9873 0.1587 200.1263 362.2264)" class="st8" cx="312.6" cy="63.7" rx="17.3" ry="10.8"/>
	<path class="st8" d="M326.4,65.8c-1.3,7.9-5.7,13.8-9.8,13.1s-6.5-7.6-5.2-15.5s5.7-13.8,9.8-13.1S327.6,57.9,326.4,65.8z"/>
	<path class="st4" d="M320.5,32.6c0.7,10.4-0.4,20.9-3.4,30.9c0,0-0.4,6,5.2,3.4s4.8-25.3,4.1-34.6S318.6,25.5,320.5,32.6z"/>
	<path class="st8" d="M299.7,15.1c0,0,8.5-2.2,13,5.6s3.7,14.9,10,15.6S329.4,30,326,21S315.6,5.4,305.9,4.7s-14.4,7.1-14.4,7.1
		S296.7,12.5,299.7,15.1z"/>
	<path class="st0" d="M298.9,154.2l-25.7,58.4c0,0-69.9,13-76.3,13s-19,4.5-21.6,6s-27.9,13.1-23,13.9c3,0.5,10.8-3.8,10.8-3.8
		s-12.3,6-11.2,7.8s16-5.6,16-5.6s-13.6,8-10.8,8.5c2.5,0.5,5.6-1,8.2-2.9c2.3-1.4,4.7-2.5,7.3-3.2c0,0-6,4-6.7,5.8s1.5,0.7,3.7,0
		c4.2-1.8,8.2-3.9,12.1-6.3c1.5-1.1,5.9-3.4,8.9-6l5.9-5.2c0,0,39.8,1.1,58,0.4s27.2-2.6,33.9-9.3s25.7-49.1,30.1-60.6
		s1.5-18.2-3-26"/>
	<g>
		<defs>
			<path id="SVGID_9_" d="M298.9,154.2l-25.7,58.4c0,0-69.9,13-76.3,13s-19,4.5-21.6,6s-27.9,13.1-23,13.9c3,0.5,10.8-3.8,10.8-3.8
				s-12.3,6-11.2,7.8s16-5.6,16-5.6s-13.6,8-10.8,8.5c2.5,0.5,5.6-1,8.2-2.9c2.3-1.4,4.7-2.5,7.3-3.2c0,0-6,4-6.7,5.8s1.5,0.7,3.7,0
				c4.2-1.8,8.2-3.9,12.1-6.3c1.5-1.1,5.9-3.4,8.9-6l5.9-5.2c0,0,39.8,1.1,58,0.4s27.2-2.6,33.9-9.3s25.7-49.1,30.1-60.6
				s1.5-18.2-3-26"/>
		</defs>
		<clipPath id="SVGID_10_">
			<use xlink:href="#SVGID_9_"  style="overflow:visible;"/>
		</clipPath>
		<g class="st24">
			<path class="st22" d="M300,192.5c-12,22.6-22.1,29.6-32.8,35s-69.1,6.6-69.1,6.6l2.5,0.6c10.5,0.3,39.3,0.9,54,0.3
				c18.2-0.7,27.2-2.6,33.9-9.3s25.7-49.1,30.1-60.6c2.1-5.3,2.5-9.6,2-13.5l-2.5,1.6C312.8,166.6,306.8,179.8,300,192.5z"/>
		</g>
	</g>
	<path class="st16" d="M298.9,154.2l-25.7,58.4c0,0-69.9,13-76.3,13s-19,4.5-21.6,6s-27.9,13.1-23,13.9c3,0.5,10.8-3.8,10.8-3.8
		s-12.3,6-11.2,7.8s16-5.6,16-5.6s-13.6,8-10.8,8.5c2.5,0.5,5.6-1,8.2-2.9c2.3-1.4,4.7-2.5,7.3-3.2c0,0-6,4-6.7,5.8s1.5,0.7,3.7,0
		c4.2-1.8,8.2-3.9,12.1-6.3c1.5-1.1,5.9-3.4,8.9-6l5.9-5.2c0,0,39.8,1.1,58,0.4s27.2-2.6,33.9-9.3s25.7-49.1,30.1-60.6
		s1.5-18.2-3-26"/>
	<path class="st9" d="M298.5,152.8l-7.8,20.3c5.7-3.1,16.5-7.2,25.1-1c1.2-2.8,2.2-5.2,2.9-7c4.5-11.5,1.5-18.2-3-26"/>
	<path class="st0" d="M243.2,179.6c-7.5,2.2-37.4,10.9-40.1,11.6c-1.7,0.4-3.5,0.7-5.2,0.9c0,0-10.4-4.5-13.2-6.5s-6.1-0.8-7.8,0
		s-3,6,0.2,6s3.7-0.2,7.3,2.8s3.5,4.5,6.1,5.6s6.9,0.4,9.1,0c2-0.3,36.6-2.6,45.1-3.1C245.8,192.2,244.6,184.9,243.2,179.6z"/>
	<g>
		<defs>
			<path id="SVGID_11_" d="M243.2,179.6c-7.5,2.2-37.4,10.9-40.1,11.6c-1.7,0.4-3.5,0.7-5.2,0.9c0,0-10.4-4.5-13.2-6.5
				s-6.1-0.8-7.8,0s-3,6,0.2,6s3.7-0.2,7.3,2.8s3.5,4.5,6.1,5.6s6.9,0.4,9.1,0c2-0.3,36.6-2.6,45.1-3.1
				C245.8,192.2,244.6,184.9,243.2,179.6z"/>
		</defs>
		<clipPath id="SVGID_12_">
			<use xlink:href="#SVGID_11_"  style="overflow:visible;"/>
		</clipPath>
		<g class="st25">
			<path class="st22" d="M244.4,185l-44.9,15c2-0.3,36.6-2.6,45.1-3.1C245.4,193.7,245.1,189.2,244.4,185z"/>
		</g>
	</g>
	<path class="st7" d="M243.2,179.6c-7.5,2.2-37.4,10.9-40.1,11.6c-1.7,0.4-3.5,0.7-5.2,0.9c0,0-10.4-4.5-13.2-6.5s-6.1-0.8-7.8,0
		s-3,6,0.2,6s3.7-0.2,7.3,2.8s3.5,4.5,6.1,5.6s6.9,0.4,9.1,0c2-0.3,36.6-2.6,45.1-3.1C245.8,192.2,244.6,184.9,243.2,179.6z"/>
	<path class="st4" d="M168.7,191.8c0,0-3.9,2.2-5,4.8s1.1,1.9,1.9,1.3s3.9-3.2,3.9-3.2L168.7,191.8z"/>
	<path class="st4" d="M169.8,189.9c-1.5,1-2.3,2.7-2,4.5c0.4,3.2,3.7,7.8,4.1,6S169.8,189.9,169.8,189.9z"/>
	<path class="st4" d="M174.4,187.1c0,0-3.5,0.9-4.6,2.8s0.7,9.9,2.1,10.4c1,0.5,2.2,0,2.6-1c0.1-0.2,0.1-0.3,0.1-0.5
		C175,197.5,174.4,187.1,174.4,187.1z"/>
	<path class="st4" d="M178.9,185.3c0,0-4.7,0-5.2,2.2s-1.5,11.9-0.6,13.4s2.4,0.9,3.2-0.9S178.9,185.3,178.9,185.3z"/>
	<path class="st14" d="M183.1,167.9l-7.6,34.8l1.2,4.4c0.1,0.2,0.3,0.3,0.5,0.3c0.1,0,0.1-0.1,0.2-0.1l3.3-3.3l5.6-35.2L183.1,167.9
		z"/>
	<path class="st4" d="M190.6,196c0,0-4.3,1.7-7.6,3.2s-6.7,2.2-6.3,4.3s1.9,1.3,4.3,0.6c3.3-1.2,6.8-2,10.2-2.4
		c4.6-0.6,8.4-4.8,8.4-4.8"/>
	<path class="st19" d="M175.6,203.3l0.8,3.3c0.1,0.5,0.6,0.8,1.1,0.7c0.2,0,0.3-0.1,0.4-0.2l1.8-1.7"/>
	<line class="st19" x1="175.5" y1="202.7" x2="179.5" y2="185.1"/>
	<line class="st12" x1="38.8" y1="133.6" x2="89.3" y2="180.5"/>
</g>
</svg>
