<?xml version="1.0" encoding="utf-8"?>
<!-- Generator: Adobe Illustrator 23.1.0, SVG Export Plug-In . SVG Version: 6.00 Build 0)  -->
<svg version="1.1" id="line" xmlns="http://www.w3.org/2000/svg" xmlns:xlink="http://www.w3.org/1999/xlink" x="0px" y="0px"
	 viewBox="0 0 512 512" style="enable-background:new 0 0 512 512;" xml:space="preserve">
<style type="text/css">
	.st0{fill:#5266FF;}
	.st1{fill:#3B4147;}
</style>
<path class="st0" d="M368.9,281.4c-21.7-4.4-44.1-4.4-65.9,0c-78.4,15.9-134.9,84.7-135.1,164.7c0,32,25.9,57.9,57.9,57.9
	c3.8,0,7.6-0.4,11.3-1.1c65.2-13.1,132.4-13.1,197.6,0c31.3,6.2,61.8-14.1,68.1-45.4c0.7-3.7,1.1-7.5,1.1-11.3
	C503.8,366.1,447.4,297.2,368.9,281.4L368.9,281.4z"/>
<circle class="st0" cx="336" cy="186.9" r="72"/>
<g>
	<path class="st1" d="M368,56h-24V32c0-13.3-10.7-24-24-24H32C18.7,8,8,18.7,8,32v192c0,13.3,10.7,24,24,24h24v24
		c0,13.3,10.7,24,24,24h288c13.3,0,24-10.7,24-24V80C392,66.7,381.3,56,368,56z M24,224V32c0-4.4,3.6-8,8-8h288c4.4,0,8,3.6,8,8v192
		c0,4.4-3.6,8-8,8H32C27.6,232,24,228.4,24,224z M376,272c0,4.4-3.6,8-8,8H80c-4.4,0-8-3.6-8-8v-24h248c13.3,0,24-10.7,24-24V72h24
		c4.4,0,8,3.6,8,8V272z"/>
	<path class="st1" d="M104,144c22.1,0,40,17.9,40,40c0,4.4,3.6,8,8,8s8-3.6,8-8c0-30.9-25.1-56-56-56s-56,25.1-56,56
		c0,4.4,3.6,8,8,8s8-3.6,8-8C64,161.9,81.9,144,104,144z"/>
	<path class="st1" d="M104,112c17.7,0,32-14.3,32-32s-14.3-32-32-32S72,62.3,72,80S86.3,112,104,112z M104,64c8.8,0,16,7.2,16,16
		s-7.2,16-16,16s-16-7.2-16-16S95.2,64,104,64z"/>
	<path class="st1" d="M192,80h104c4.4,0,8-3.6,8-8s-3.6-8-8-8H192c-4.4,0-8,3.6-8,8S187.6,80,192,80z"/>
	<path class="st1" d="M192,128h104c4.4,0,8-3.6,8-8s-3.6-8-8-8H192c-4.4,0-8,3.6-8,8S187.6,128,192,128z"/>
	<path class="st1" d="M192,176h104c4.4,0,8-3.6,8-8s-3.6-8-8-8H192c-4.4,0-8,3.6-8,8S187.6,176,192,176z"/>
</g>
</svg>
