<?xml version="1.0" encoding="utf-8"?>
<!-- Generator: Adobe Illustrator 23.1.0, SVG Export Plug-In . SVG Version: 6.00 Build 0)  -->
<svg version="1.1" id="Icons" xmlns="http://www.w3.org/2000/svg" xmlns:xlink="http://www.w3.org/1999/xlink" x="0px" y="0px"
	 viewBox="0 0 512 512" style="enable-background:new 0 0 512 512;" xml:space="preserve">
<style type="text/css">
	.st0{fill:#5266FF;}
	.st1{fill:#3B4147;}
</style>
<path class="st0" d="M480,168H240c-13.3,0-24,10.7-24,24v24h-24c-13.3,0-24,10.7-24,24v240c0,13.3,10.7,24,24,24h240
	c13.3,0,24-10.7,24-24v-24h24c13.3,0,24-10.7,24-24V192C504,178.7,493.3,168,480,168z M488,432c0,4.4-3.6,8-8,8h-24V240
	c0-13.3-10.7-24-24-24H232v-24c0-4.4,3.6-8,8-8h240c4.4,0,8,3.6,8,8V432z"/>
<path class="st1" d="M403.8,201l-68.3-37l68.3-37c3.9-2.1,5.3-7,3.2-10.8c-0.7-1.4-1.9-2.5-3.2-3.2L211.8,9c-2.4-1.3-5.2-1.3-7.6,0
	l-192,104c-3.9,2.1-5.3,7-3.2,10.8c0.7,1.4,1.9,2.5,3.2,3.2l68.2,37l-68.2,37c-3.9,2.1-5.3,7-3.2,10.8c0.7,1.4,1.9,2.5,3.2,3.2
	l68.2,37l-68.2,37c-3.9,2.1-5.3,7-3.2,10.8c0.7,1.4,1.9,2.5,3.2,3.2l192,104c2.4,1.3,5.2,1.3,7.6,0l192-104c3.9-2.1,5.3-7,3.2-10.8
	c-0.7-1.4-1.9-2.5-3.2-3.2l-68.3-37l68.3-37c3.9-2,5.5-6.7,3.5-10.7C406.6,202.9,405.3,201.6,403.8,201z M208,25.1L383.2,120
	L208,214.9L32.8,120L208,25.1z M383.2,296L208,390.9L32.8,296l64.4-34.9l107,57.9c2.4,1.3,5.2,1.3,7.6,0l107-57.9L383.2,296z
	 M208,302.9L32.8,208l64.4-34.9l107,57.9c2.4,1.3,5.2,1.3,7.6,0l107-57.9l64.4,34.9L208,302.9z"/>
</svg>
