<?xml version="1.0" encoding="utf-8"?>
<!-- Generator: Adobe Illustrator 23.1.0, SVG Export Plug-In . SVG Version: 6.00 Build 0)  -->
<svg version="1.1" id="line" xmlns="http://www.w3.org/2000/svg" xmlns:xlink="http://www.w3.org/1999/xlink" x="0px" y="0px"
	 viewBox="0 0 512 512" style="enable-background:new 0 0 512 512;" xml:space="preserve">
<style type="text/css">
	.st0{fill:#5266FF;}
	.st1{fill:#3B4147;}
</style>
<g>
	<path class="st0" d="M496,312h-32c-4.4,0-8,3.6-8,8v28.8c-11.6,12.1-75.8,75.2-152,75.2c-76.1,0-140.4-63.1-152-75.2V320
		c0-4.4-3.6-8-8-8h-32c-4.4,0-8,3.6-8,8v32c0,4.4,3.6,8,8,8h28.5c11.9,12.5,63.9,63.5,131.5,76.8V456h-40c-4.4,0-8,3.6-8,8
		s3.6,8,8,8h144c4.4,0,8-3.6,8-8s-3.6-8-8-8h-40v-19.2c67.6-13.3,119.6-64.3,131.5-76.8H496c4.4,0,8-3.6,8-8v-32
		C504,315.6,500.4,312,496,312L496,312z M136,344h-16v-16h16V344z M488,344h-16v-16h16V344z"/>
	<path class="st0" d="M248,296h11.1l-18.2,36.4c-1.5,2.9-1,6.4,1.1,8.8l56,64c2.9,3.3,8,3.7,11.3,0.8c0.3-0.2,0.5-0.5,0.8-0.8l56-64
		c2.1-2.4,2.6-5.9,1.1-8.8L348.9,296H360c8.8,0,16-7.2,16-16v-24c0-8.8-7.2-16-16-16H248c-8.8,0-16,7.2-16,16v24
		C232,288.8,239.2,296,248,296z M350.4,334.8L304,387.8l-46.4-53.1l19.3-38.8h54.1L350.4,334.8z"/>
	<circle class="st0" cx="304" cy="328" r="24"/>
	<path class="st0" d="M360,192c0-13.3-10.7-24-24-24h-64c-13.3,0-24,10.7-24,24v32h112V192z"/>
</g>
<path class="st1" d="M406,138.7c-3.6-4-89.6-98.7-198-98.7S13.6,134.6,10,138.7c-2.7,3-2.7,7.6,0,10.7c3.6,4,89.6,98.7,198,98.7
	s194.4-94.6,198-98.7C408.7,146.3,408.7,141.7,406,138.7z M27.1,144c30.6-30.6,66.6-55.1,106.3-72.3c-39.2,40.2-39.2,104.4,0,144.6
	C93.7,199.1,57.7,174.6,27.1,144z M208,232c-48.6,0-88-39.4-88-88s39.4-88,88-88s88,39.4,88,88C295.9,192.6,256.6,231.9,208,232
	L208,232z M282.6,216.3c39.2-40.2,39.2-104.4,0-144.6c39.7,17.2,75.7,41.7,106.3,72.3C358.3,174.6,322.3,199.1,282.6,216.3z"/>
<path class="st1" d="M208,72c-9.4,0-18.7,1.8-27.4,5.5c0,0-0.1,0-0.1,0l-0.1,0.1c-17.5,7.3-31.5,21.3-38.8,38.8l0,0.1v0.1
	c-15.2,36.8,2.3,78.9,39.1,94c36.8,15.2,78.9-2.3,94-39.1c15.2-36.8-2.3-78.9-39.1-94C226.8,73.8,217.4,72,208,72z M179.4,95.9
	l13.8,33.3l-33.3-13.8C164.7,107.4,171.4,100.7,179.4,95.9z M208,200c-30.8,0.1-55.9-24.8-56-55.6c0-4.8,0.6-9.6,1.8-14.2l51.2,21.2
	c4.1,1.6,8.8-0.4,10.5-4.5c0.8-1.9,0.7-4,0-5.9l-21.2-51.1c29.9-7.8,60.5,10.2,68.3,40.2s-10.2,60.5-40.2,68.3
	C217.6,199.4,212.8,200,208,200z"/>
</svg>
