<?xml version="1.0" encoding="utf-8"?>
<!-- Generator: Adobe Illustrator 25.0.0, SVG Export Plug-In . SVG Version: 6.00 Build 0)  -->
<svg version="1.1" id="Line" xmlns="http://www.w3.org/2000/svg" xmlns:xlink="http://www.w3.org/1999/xlink" x="0px" y="0px"
	 viewBox="0 0 512 512" style="enable-background:new 0 0 512 512;" xml:space="preserve">
<style type="text/css">
	.st0{fill:#FEB75D;}
	.st1{fill:#3B4147;}
</style>
<path class="st0" d="M480,160.5h-48V412c0,22.1-17.9,40-40,40H232v24c0,13.3,10.7,24,24,24h224c13.3,0,24-10.7,24-24V184.5
	C504,171.2,493.3,160.5,480,160.5z"/>
<path class="st0" d="M416,412V120.5c0-13.3-10.7-24-24-24H168c-13.3,0-24,10.7-24,24v40h-32c-4.4,0-8,3.6-8,8s3.6,8,8,8h80
	c4.4,0,8,3.6,8,8s-3.6,8-8,8h-48v32h-32c-4.4,0-8,3.6-8,8s3.6,8,8,8h80c4.4,0,8,3.6,8,8c0,4.4-3.6,8-8,8h-48v32h-32
	c-4.4,0-8,3.6-8,8s3.6,8,8,8h80c4.4,0,8,3.6,8,8s-3.6,8-8,8h-48v32h-32c-4.4,0-8,3.6-8,8s3.6,8,8,8h80c4.4,0,8,3.6,8,8s-3.6,8-8,8
	h-48V412c0,13.3,10.7,24,24,24h224C405.3,436,416,425.3,416,412z M328,352.5h-80c-4.4,0-8-3.6-8-8s3.6-8,8-8h80c4.4,0,8,3.6,8,8
	S332.4,352.5,328,352.5z M328,304.5h-80c-4.4,0-8-3.6-8-8s3.6-8,8-8h80c4.4,0,8,3.6,8,8S332.4,304.5,328,304.5z"/>
<path class="st1" d="M407.6,297.5l-15.9-47.7c9.7-6.8,13-19.7,7.7-30.3l-43.5-87c-2-4.1-5.2-7.5-9.1-9.8l-95.1-57.1
	c-7.1-4.2-15.7-4.5-23.1-0.9l-12.2,6.1l-49.5-49.6c-12.7-12.5-33-12.3-45.5,0.3c-12.3,12.5-12.3,32.7,0,45.2l34.3,34.3l-43.9,22
	c-1.1,0.5-2.3,0.8-3.5,0.8H87.8c-0.9-12.5-11.3-22.1-23.8-22.2H32c-13.3,0-24,10.7-24,24V284c0,13.3,10.7,24,24,24h32
	c11.5,0,21.4-8.2,23.5-19.5h120.1c1.4,0,2.7-0.3,3.9-0.9l41-20.4h69.1l21.5,21.5c0.9,0.8,2,1.5,3.1,1.9l51.2,17
	c4.2,1.4,8.7-0.9,10.1-5.1C408.1,300.9,408.1,299.1,407.6,297.5z M72,284c0,4.4-3.6,8-8,8H32c-4.4,0-8-3.6-8-8V125.7
	c0-4.4,3.6-8,8-8h32c4.4,0,8,3.6,8,8V284z M235.7,79.1c2.4-1.2,5.3-1.1,7.7,0.2l95.1,57.1c1.3,0.8,2.4,1.9,3.1,3.3l43.5,86.9
	c1,2,1.1,4.4,0.3,6.5c-0.6,1.5-1.7,2.8-3.1,3.6l-154-154L235.7,79.1z M132.7,55.6c-6.4-6.2-6.6-16.4-0.3-22.9
	c6.2-6.4,16.4-6.6,22.9-0.3c0.1,0.1,0.2,0.2,0.3,0.3l11.4,11.5l-22.8,22.8L132.7,55.6z M155.4,78.2l22.8-22.8
	c142.2,142.1-98.8-98.8,142.4,142.3h-45.7L155.4,78.2z M252.3,197.7h-17.6c-4.4,0-8-3.6-8-8v-17.7L252.3,197.7z M320,251.1h-69.4
	c-1.2,0-2.5,0.3-3.6,0.8L206,272.5H88V140h20.2c3.7,0,7.4-0.9,10.7-2.5l48.7-24.4l43,43v33.7c0,13.3,10.7,24,24,24H320
	c10.3,0.2,18.5,8.8,18.3,19.1C338.1,242.9,330,250.9,320,251.1L320,251.1z M338.8,261.6c10.1-6.6,16-17.8,15.9-29.8l17,17
	l-22.8,22.8L338.8,261.6z M363.6,279.4l15.9-15.8l7.9,23.8L363.6,279.4z"/>
</svg>
