<?xml version="1.0" encoding="utf-8"?>
<!-- Generator: Adobe Illustrator 23.1.0, SVG Export Plug-In . SVG Version: 6.00 Build 0)  -->
<svg version="1.1" id="Icons" xmlns="http://www.w3.org/2000/svg" xmlns:xlink="http://www.w3.org/1999/xlink" x="0px" y="0px"
	 viewBox="0 0 512 512" style="enable-background:new 0 0 512 512;" xml:space="preserve">
<style type="text/css">
	.st0{fill:#5266FF;}
	.st1{fill:#3B4147;}
</style>
<path class="st0" d="M480,160H160c-13.3,0-24,10.7-24,24v232c0,13.3,10.7,24,24,24h104v16h-16c-22.1,0-40,17.9-40,40
	c0,4.4,3.6,8,8,8h208c4.4,0,8-3.6,8-8c0-22.1-17.9-40-40-40h-16v-16h104c13.3,0,24-10.7,24-24V184C504,170.7,493.3,160,480,160z
	 M414.6,488H225.4c3.4-9.6,12.5-16,22.6-16h144C402.2,472,411.2,478.4,414.6,488z M488,416c0,4.4-3.6,8-8,8H160c-4.4,0-8-3.6-8-8
	V184c0-4.4,3.6-8,8-8h320c4.4,0,8,3.6,8,8V416z"/>
<path class="st0" d="M176,192h288c4.4,0,8,3.6,8,8v184c0,4.4-3.6,8-8,8H176c-4.4,0-8-3.6-8-8V200C168,195.6,171.6,192,176,192z"/>
<path class="st1" d="M400,176h-16.4C379.4,98.5,317.5,36.6,240,32.4V16c0-4.4-3.6-8-8-8h-48c-4.4,0-8,3.6-8,8v16.4
	C98.5,36.6,36.6,98.5,32.4,176H16c-4.4,0-8,3.6-8,8v48c0,4.4,3.6,8,8,8h48c4.4,0,8-3.6,8-8v-48c0-4.4-3.6-8-8-8H48.4
	C52.5,107.3,107.3,52.5,176,48.4V64c0,4.4,3.6,8,8,8h10.6L97,252.2c-1.2,2.3-1.3,5-0.1,7.4l39.2,78.3V400c0,4.4,3.6,8,8,8h128
	c4.4,0,8-3.6,8-8v-62.1l39.2-78.3c1.2-2.3,1.1-5.1-0.1-7.4L221.4,72H232c4.4,0,8-3.6,8-8V48.4c68.7,4.1,123.5,58.9,127.6,127.6H352
	c-4.4,0-8,3.6-8,8v48c0,4.4,3.6,8,8,8h48c4.4,0,8-3.6,8-8v-48C408,179.6,404.4,176,400,176z M56,224H24v-32h32V224z M208,216
	c13.3,0,24,10.7,24,24s-10.7,24-24,24s-24-10.7-24-24S194.7,216,208,216z M264,392H152v-48h112V392z M267.1,328H148.9L113,256.2
	l87-160.6v105.2c-21.6,4.4-35.6,25.5-31.2,47.2s25.5,35.6,47.2,31.2s35.6-25.5,31.2-47.2c-3.2-15.7-15.5-28-31.2-31.2V95.6l87,160.6
	L267.1,328z M224,56h-32V24h32V56z M392,224h-32v-32h32V224z"/>
</svg>
