<?xml version="1.0" encoding="utf-8"?>
<!-- Generator: Adobe Illustrator 23.1.0, SVG Export Plug-In . SVG Version: 6.00 Build 0)  -->
<svg version="1.1" id="Calque_1" xmlns="http://www.w3.org/2000/svg" xmlns:xlink="http://www.w3.org/1999/xlink" x="0px" y="0px"
	 viewBox="0 0 62 61" style="enable-background:new 0 0 62 61;" xml:space="preserve">
<style type="text/css">
	.st0{fill:#5266FF;}
	.st1{fill:#3B4147;}
</style>
<g id="freelance" transform="translate(-1 -1.48)">
	<path id="Tracé_7199" class="st0" d="M19,29.5v-3c0-1.7,1.3-3,3-3h38c1.7,0,3,1.3,3,3v3H19z M63,31.5v28c0,1.7-1.3,3-3,3H22
		c-1.7,0-3-1.3-3-3v-28H63z M29.4,46.5l5.3-5.3c0.4-0.4,0.4-1,0-1.4s-1-0.4-1.4,0l-6,6c-0.4,0.4-0.4,1,0,1.4c0,0,0,0,0,0l6,6
		c0.4,0.4,1,0.4,1.4,0s0.4-1,0-1.4L29.4,46.5z M43.3,39.5c-0.5-0.2-1.1,0.1-1.3,0.6c0,0,0,0,0,0l-4,12c-0.2,0.5,0.1,1.1,0.6,1.3
		c0,0,0,0,0,0c0.1,0,0.2,0,0.3,0c0.4,0,0.9-0.3,1-0.7l4-12C44.1,40.2,43.8,39.7,43.3,39.5L43.3,39.5z M54.7,45.7l-6-6
		c-0.4-0.4-1-0.4-1.4,0s-0.4,1,0,1.4l5.3,5.3l-5.3,5.3c-0.4,0.4-0.4,1,0,1.4s1,0.4,1.4,0l6-6C55.1,46.8,55.1,46.2,54.7,45.7
		L54.7,45.7z"/>
	<path id="Tracé_7200" class="st1" d="M25.8,32.4c8.2-3.2,12.3-12.5,9.1-20.7C31.7,3.5,22.5-0.6,14.2,2.6S1.9,15,5.1,23.3
		c1.6,4.2,4.9,7.5,9.1,9.1C6.4,34.9,1,42.2,1,50.5c0,0.6,0.4,1,1,1h36c0.6,0,1-0.4,1-1C39,42.2,33.6,34.9,25.8,32.4z M29.9,19.5
		c-0.6-2.1-2.8-3.4-4.9-2.8c-1.4,0.4-2.4,1.4-2.8,2.8h-4.3c-0.6-2.1-2.8-3.4-4.9-2.8c-1.4,0.4-2.4,1.4-2.8,2.8h-4
		C6,18.8,6,18.2,6,17.5c0-0.7,0.1-1.3,0.2-2H11c4.5,0,8.9-1.9,12-5.2c1.7,3.2,4.9,5.2,8.5,5.2h2.4c0.1,0.7,0.2,1.3,0.2,2
		c0,0.7-0.1,1.3-0.2,2L29.9,19.5z M28,20.5c0,1.1-0.9,2-2,2s-2-0.9-2-2s0.9-2,2-2S28,19.4,28,20.5z M16,20.5c0,1.1-0.9,2-2,2
		s-2-0.9-2-2s0.9-2,2-2S16,19.4,16,20.5z M33.4,13.5h-2c-3.2,0-6-2-7.1-4.9c0.9-1.2,1-1.7,2.1-3.5C29.8,6.8,32.3,9.9,33.4,13.5z
		 M20,3.5c1.6,0,3.1,0.3,4.6,0.8c-0.4,0.5-3.6,9.2-13.5,9.2H6.6C8.4,7.6,13.8,3.5,20,3.5z M6.6,21.5h3.6c0.6,2.1,2.8,3.4,4.9,2.8
		c1.4-0.4,2.4-1.4,2.8-2.8h4.3c0.6,2.1,2.8,3.4,4.9,2.8c1.4-0.4,2.4-1.4,2.8-2.8h3.5c-2.2,7.4-10,11.6-17.4,9.4
		C11.5,29.5,7.9,26,6.6,21.5z M24.5,34.1c-0.5,0.5-1.3,3.4-4.5,3.4s-4.1-2.9-4.5-3.4C18.5,33.3,21.6,33.3,24.5,34.1L24.5,34.1z
		 M11.3,44.6c-0.1-0.5,0.3-1,0.9-1.1c0,0,0.1,0,0.1,0h15.4c0.6,0,1,0.4,1,1c0,0,0,0.1,0,0.1l-0.6,4.9H11.9L11.3,44.6z M30.1,49.5
		l0.6-4.6c0.2-1.6-1-3.1-2.6-3.3c-0.1,0-0.3,0-0.4,0H12.3c-1.7,0-3,1.3-3,3c0,0.1,0,0.3,0,0.4l0.6,4.6H3C3.4,43,7.5,37.2,13.6,34.8
		c0.5,0.6,1.9,4.7,6.4,4.7s5.9-4.2,6.4-4.7C32.5,37.2,36.6,43,37,49.5H30.1z"/>
</g>
</svg>
