<?xml version="1.0" encoding="utf-8"?>
<!-- Generator: Adobe Illustrator 23.1.0, SVG Export Plug-In . SVG Version: 6.00 Build 0)  -->
<svg version="1.1" id="Calque_1" xmlns="http://www.w3.org/2000/svg" xmlns:xlink="http://www.w3.org/1999/xlink" x="0px" y="0px"
	 viewBox="0 0 62 62" style="enable-background:new 0 0 62 62;" xml:space="preserve">
<style type="text/css">
	.st0{fill:#5266FF;}
	.st1{fill:#3B4147;}
</style>
<g id="_012-mobile_phones" transform="translate(-1 -1)">
	<path id="Tracé_7571" class="st0" d="M58,13c-2.8,0-5,2.2-5,5c0,0.1-0.1,20,0,20c0,0.6-0.4,1-1,1s-1-0.4-1-1v-8.9
		C50.7,29,50.3,29,50,29c-2.8,0-5,2.2-5,5v11.7l-3.8,5.8C41.1,51.6,41,51.8,41,52v10c0,0.6,0.4,1,1,1h14c0.6,0,1-0.4,1-1v-7.8
		l5.9-10.8C63,43.3,63,43.2,63,43V18C63,15.2,60.8,13,58,13z M55,61H43v-4h12V61z"/>
	<path id="Tracé_7572" class="st0" d="M31,45.7V34c0-2.8-2.2-5-5-5c-0.3,0-0.7,0-1,0.1V38c0,0.6-0.4,1-1,1s-1-0.4-1-1V18
		c0-2.8-2.2-5-5-5s-5,2.2-5,5v25c0,0.2,0,0.3,0.1,0.5L19,54.3V62c0,0.6,0.4,1,1,1h14c0.6,0,1-0.4,1-1V52c0-0.2-0.1-0.4-0.2-0.5
		L31,45.7z M33,61H21v-4h12V61z"/>
	<g id="Groupe_10299">
		<path id="Tracé_7573" class="st1" d="M15,45h-2c-0.6,0-1,0.4-1,1s0.4,1,1,1h2c0.6,0,1-0.4,1-1S15.6,45,15,45z"/>
		<path id="Tracé_7574" class="st1" d="M7,7h4c0.6,0,1-0.4,1-1s-0.4-1-1-1H7C6.4,5,6,5.4,6,6S6.4,7,7,7z"/>
		<path id="Tracé_7575" class="st1" d="M17,7h4c0.6,0,1-0.4,1-1s-0.4-1-1-1h-4c-0.6,0-1,0.4-1,1S16.4,7,17,7z"/>
		<path id="Tracé_7576" class="st1" d="M40,16H27V4c0-1.7-1.3-3-3-3H4C2.3,1,1,2.3,1,4v44c0,1.7,1.3,3,3,3h20c1.7,0,3-1.3,3-3V36
			h13c1.7,0,3-1.3,3-3V19C43,17.3,41.7,16,40,16z M4,3h20c0.6,0,1,0.4,1,1v5H3V4C3,3.4,3.4,3,4,3z M24,49H4c-0.6,0-1-0.4-1-1v-5h22
			v5C25,48.6,24.6,49,24,49z M25,41H3V11h22v5h-9c-1.7,0-3,1.3-3,3v14c0,1.7,1.3,3,3,3h9V41z M41,33c0,0.6-0.4,1-1,1H16
			c-0.6,0-1-0.4-1-1V19c0-0.6,0.4-1,1-1h24c0.6,0,1,0.4,1,1V33z"/>
		<path id="Tracé_7577" class="st1" d="M31.7,21.3c-0.4-0.4-1-0.4-1.4,0l0,0L28,23.6l-2.3-2.3c-0.4-0.4-1-0.4-1.4,0l0,0l-7,7
			c-0.4,0.4-0.4,1,0,1.4s1,0.4,1.4,0l6.3-6.3l6.3,6.3c0.4,0.4,1,0.4,1.4,0s0.4-1,0-1.4l0,0L29.4,25l1.6-1.6l6.3,6.3
			c0.4,0.4,1,0.4,1.4,0s0.4-1,0-1.4l0,0L31.7,21.3z"/>
	</g>
</g>
</svg>
