<?xml version="1.0" encoding="utf-8"?>
<!-- Generator: Adobe Illustrator 25.2.0, SVG Export Plug-In . SVG Version: 6.00 Build 0)  -->
<svg version="1.1" id="Calque_1" xmlns="http://www.w3.org/2000/svg" xmlns:xlink="http://www.w3.org/1999/xlink" x="0px" y="0px"
	 viewBox="0 0 154.8 25.3" style="enable-background:new 0 0 154.8 25.3;" xml:space="preserve">
<style type="text/css">
	.st0{fill:#3B4147;}
	.st1{fill:#5266FF;}
</style>
<path id="Tracé_8930" class="st0" d="M46.6,7.1h3.2l1.5,9.3h0.6l1.8-9H57l1.8,9h0.6l1.5-9.3h3.2l-2.3,12h-5l-1.4-7.3L54,19.1h-5
	L46.6,7.1z M68.9,14.5c0,0.6,0.2,1.2,0.6,1.6c0.5,0.4,1,0.5,1.6,0.5c1.5,0,2.8,0,4-0.1l0.7-0.1v2.4c-1.6,0.4-3.3,0.6-5,0.7
	c-1.5,0.1-2.9-0.4-3.9-1.4c-0.8-1-1.2-2.5-1.2-4.7c0-4.3,1.8-6.5,5.3-6.5s5.2,1.8,5.2,5.4L76,14.5H68.9z M73,12
	c0.1-0.7-0.1-1.4-0.5-2c-0.4-0.4-1-0.6-1.6-0.6c-0.6-0.1-1.2,0.2-1.6,0.6c-0.4,0.6-0.5,1.3-0.5,2H73z M84.5,6.8
	c1.4-0.1,2.7,0.4,3.7,1.4c0.8,0.9,1.2,2.6,1.2,4.9c0,2.4-0.4,4-1.3,4.9s-2.4,1.4-4.6,1.4c-0.7,0-1.9-0.1-3.8-0.2l-0.9-0.1V2.3H82
	v5.2C82.8,7.1,83.6,6.9,84.5,6.8z M83.4,16.5c0.8,0.1,1.6-0.2,2.2-0.8c0.4-0.9,0.6-1.8,0.6-2.8c0-2.2-0.7-3.2-2-3.2
	c-0.6,0-1.2,0.1-1.8,0.2L82.1,10v6.4C82.7,16.5,83.2,16.5,83.4,16.5L83.4,16.5z M95.2,19.1H92v-12h3.2v0.7C96,7.2,97,6.9,98,6.8
	c1.1-0.1,2.2,0.3,3,1.1c1.2-0.7,2.6-1.1,4-1.1c1.3-0.1,2.5,0.4,3.3,1.4c0.7,1.4,1,2.9,0.9,4.4v6.5H106v-6.4c0-0.8-0.1-1.5-0.3-2.3
	c-0.2-0.5-0.8-0.8-1.3-0.7c-0.6,0-1.3,0.1-1.9,0.3l-0.4,0.1c0.1,1.2,0.1,2.1,0.1,2.7V19H99v-6.2c0-0.8-0.1-1.7-0.3-2.5
	c-0.3-0.5-0.8-0.8-1.4-0.7c-0.6,0-1.3,0.1-1.8,0.3L95.2,10V19.1L95.2,19.1z M121.6,10.8v5c0,0.3,0.1,0.6,0.2,0.8
	c0.1,0.2,0.4,0.3,0.6,0.3l-0.1,2.4c-0.7,0-1.3,0-2-0.2c-0.5-0.1-1-0.4-1.5-0.7c-1.1,0.5-2.3,0.8-3.5,0.8c-2.5,0-3.7-1.3-3.7-3.9
	c-0.1-1,0.3-2,1-2.7c0.9-0.6,2-0.9,3.2-0.9l2.6-0.2v-0.7c0-0.4-0.1-0.7-0.3-1c-0.3-0.2-0.7-0.3-1.1-0.3l-4.5,0.2l-0.1-2.2
	c1.6-0.4,3.2-0.7,4.9-0.7c1.2-0.1,2.4,0.2,3.3,1C121.3,8.6,121.7,9.7,121.6,10.8z M116.2,14c-0.7,0-1.3,0.5-1.4,1.2
	c0,0.1,0,0.1,0,0.2c0,0.9,0.4,1.3,1.2,1.3c0.7,0,1.3-0.1,2-0.3l0.4-0.1v-2.6L116.2,14z M128.1,19.1h-3.2v-12h3.2v0.7
	c0.9-0.6,1.9-0.9,3-1c1.3-0.1,2.5,0.4,3.3,1.4c0.7,1.3,1,2.9,0.9,4.4v6.5h-3.2v-6.4c0-0.8-0.1-1.5-0.4-2.3c-0.3-0.5-0.9-0.8-1.4-0.7
	c-0.6,0-1.3,0.1-1.9,0.3l-0.3,0.1L128.1,19.1z M138.4,19.1v-12h3.2v12H138.4z M138.4,5.6V2.3h3.2v3.3C141.6,5.6,138.4,5.6,138.4,5.6
	z M154.1,10.8v5c0,0.3,0.1,0.6,0.2,0.8c0.1,0.2,0.4,0.3,0.6,0.3l-0.1,2.4c-0.7,0-1.3,0-2-0.2c-0.5-0.1-1-0.4-1.5-0.7
	c-1.1,0.5-2.3,0.8-3.5,0.8c-2.5,0-3.7-1.3-3.7-3.9c-0.1-1,0.3-2,1-2.7c0.9-0.6,2-0.9,3.2-0.9l2.6-0.2v-0.7c0-0.4-0.1-0.7-0.3-1
	c-0.3-0.2-0.7-0.3-1.1-0.3L145,9.7l-0.1-2.2c1.6-0.4,3.2-0.7,4.9-0.7c1.2-0.1,2.4,0.2,3.3,1C153.8,8.6,154.1,9.7,154.1,10.8
	L154.1,10.8z M148.7,14c-0.7,0-1.3,0.5-1.4,1.2c0,0.1,0,0.1,0,0.2c0,0.9,0.4,1.3,1.2,1.3c0.7,0,1.3-0.1,2-0.3l0.4-0.1v-2.6L148.7,14
	z"/>
<path id="Tracé_2499" class="st1" d="M34.9,11.5L24.1,0.7c-0.6-0.6-1.6-0.6-2.2,0l-3,3c-0.6,0.6-1.6,0.6-2.2,0l-3-3
	c-0.6-0.6-1.6-0.6-2.2,0L0.6,11.5c-0.8,0.8-0.8,2.2,0,3L11,24.9c0.8,0.8,2.2,0.8,3,0l0,0l2.6-2.6c0.6-0.6,1.6-0.6,2.2,0l2.6,2.6
	c0.8,0.8,2.2,0.8,3,0l0,0l10.4-10.4C35.7,13.6,35.7,12.3,34.9,11.5L34.9,11.5L34.9,11.5z M11.4,19.3l-5.2-5.2
	c-0.6-0.6-0.6-1.6,0-2.2l5.2-5.2c0.6-0.6,1.6-0.6,2.2,0l0,0l0,0c0.6,0.6,0.6,1.6,0,2.2L11,11.5c-0.8,0.8-0.8,2.2,0,3l0,0l2.6,2.6
	c0.6,0.6,0.6,1.6,0,2.2l0,0C13,19.9,12,19.9,11.4,19.3z M18.9,11.8L18.9,11.8c0.6,0.6,0.6,1.6,0,2.2l0,0c-0.6,0.6-1.6,0.6-2.2,0l0,0
	c-0.6-0.6-0.6-1.6,0-2.2l0,0C17.3,11.2,18.2,11.2,18.9,11.8L18.9,11.8z M24.5,14.5c0.8-0.8,0.8-2.2,0-3l-2.6-2.6
	c-0.6-0.6-0.6-1.6,0-2.2l0,0l0,0c0.6-0.6,1.6-0.6,2.2,0l5.2,5.2c0.6,0.6,0.6,1.6,0,2.2l-5.2,5.2c-0.6,0.6-1.6,0.6-2.2,0l0,0
	c-0.6-0.6-0.6-1.6,0-2.2L24.5,14.5z"/>
</svg>
