<svg xmlns="http://www.w3.org/2000/svg" xmlns:xlink="http://www.w3.org/1999/xlink" width="200" height="141.304" viewBox="0 0 200 141.304">
  <defs>
    <clipPath id="clip-path">
      <rect id="Rectangle_1666" data-name="Rectangle 1666" width="200" height="141.304" transform="translate(1524.862 32)" fill="#fff" stroke="#707070" stroke-width="1"/>
    </clipPath>
  </defs>
  <g id="Groupe_de_masques_34" data-name="Groupe de masques 34" transform="translate(-1524.862 -32)" clip-path="url(#clip-path)">
    <path id="Tracé_2500" data-name="Tracé 2500" d="M391.789,126.562,270.416,5.173a17.662,17.662,0,0,0-24.979,0L211.882,38.728a17.683,17.683,0,0,1-25,0L153.331,5.173a17.683,17.683,0,0,0-25,0L6.945,126.562a23.738,23.738,0,0,0,0,33.555L124.064,277.2a23.7,23.7,0,0,0,33.554,0l29.268-29.268a17.685,17.685,0,0,1,25,0L241.15,277.2a23.7,23.7,0,0,0,33.555,0L391.789,160.117a23.7,23.7,0,0,0,0-33.555ZM128.334,214.38,69.783,155.83a17.688,17.688,0,0,1,0-25l58.551-58.551a17.684,17.684,0,0,1,25,0h0a17.685,17.685,0,0,1,0,25l-29.267,29.284a23.7,23.7,0,0,0,0,33.555l29.267,29.267a17.684,17.684,0,0,1,0,25h0A17.684,17.684,0,0,1,128.334,214.38Zm83.548-83.547h0a17.684,17.684,0,0,1,0,25h0a17.685,17.685,0,0,1-25,0h0a17.682,17.682,0,0,1,0-25h0A17.684,17.684,0,0,1,211.882,130.833ZM274.7,160.117a23.74,23.74,0,0,0,0-33.555L245.437,97.279a17.655,17.655,0,0,1,0-25h0a17.664,17.664,0,0,1,24.979,0l58.552,58.551a17.684,17.684,0,0,1,0,25L270.416,214.38a17.664,17.664,0,0,1-24.979,0h0a17.682,17.682,0,0,1,0-25Z" transform="translate(1923.613 173.874) rotate(180)" fill="#5266ff"/>
  </g>
</svg>
