<svg xmlns="http://www.w3.org/2000/svg" xmlns:xlink="http://www.w3.org/1999/xlink" width="200" height="141.091" viewBox="0 0 200 141.091">
  <defs>
    <clipPath id="clip-path">
      <rect id="Rectangle_1700" data-name="Rectangle 1700" width="200" height="141.091" transform="translate(1621.138 4376.672)" fill="#fff" stroke="#707070" stroke-width="1"/>
    </clipPath>
  </defs>
  <g id="Groupe_de_masques_60" data-name="Groupe de masques 60" transform="translate(-1621.138 -4376.672)" clip-path="url(#clip-path)">
    <path id="Tracé_5621" data-name="Tracé 5621" d="M392.227,126.7,270.718,5.179a17.682,17.682,0,0,0-25.007,0L212.119,38.771a17.7,17.7,0,0,1-25.024,0L153.5,5.179a17.7,17.7,0,0,0-25.024,0L6.953,126.7a23.764,23.764,0,0,0,0,33.592L124.2,277.513a23.725,23.725,0,0,0,33.592,0l29.3-29.3a17.7,17.7,0,0,1,25.024,0l29.3,29.3a23.726,23.726,0,0,0,33.592,0L392.227,160.3a23.725,23.725,0,0,0,0-33.592ZM128.478,214.62,69.861,156a17.707,17.707,0,0,1,0-25.024l58.617-58.616a17.7,17.7,0,0,1,25.024,0h0a17.7,17.7,0,0,1,0,25.024L124.2,126.7a23.725,23.725,0,0,0,0,33.592l29.3,29.3a17.7,17.7,0,0,1,0,25.024h0A17.7,17.7,0,0,1,128.478,214.62Zm83.641-83.64h0a17.7,17.7,0,0,1,0,25.024h0a17.7,17.7,0,0,1-25.024,0h0a17.7,17.7,0,0,1,0-25.024h0A17.7,17.7,0,0,1,212.119,130.98ZM275.012,160.3a23.767,23.767,0,0,0,0-33.592l-29.3-29.316a17.675,17.675,0,0,1,0-25.024h0a17.683,17.683,0,0,1,25.007,0l58.618,58.616a17.7,17.7,0,0,1,0,25.024L270.718,214.62a17.683,17.683,0,0,1-25.007,0h0a17.7,17.7,0,0,1,0-25.024Z" transform="translate(2020.736 4660.238) rotate(180)" fill="#feb75d"/>
  </g>
</svg>
